<svg id="Layer_3" enable-background="new 0 0 64 64" height="512"  fill='white' viewBox="0 0 64 64" width="512" xmlns="http://www.w3.org/2000/svg"><path d="m60 39h3v-2h-2v-6c0-.552-.447-1-1-1h-3v-17h5c.447 0 .827-.306.948-.736.122-.431-.07-.898-.451-1.132-8.611-5.299-18.469-8.724-28.508-9.905l-1.872-.22c-.078-.009-.156-.009-.234 0l-1.872.22c-10.039 1.181-19.897 4.606-28.53 9.918-.384.233-.565.692-.444 1.125.121.431.515.73.963.73h5v17h-2v2h2v29h-6v2h62v-2h-6v-29h2v6c0 .553.447 1 1 1zm-5-9h-2v-17h2zm-39 5h2.18l-.161.804 1.961.393.24-1.197h.961l-.161.804 1.961.393.239-1.197h.961l-.161.804 1.961.393.239-1.197h.961l-.161.804 1.961.393.239-1.197h.961l-.161.804 1.961.393.239-1.197h.961l-.161.804 1.961.393.239-1.197h.961l-.161.804 1.961.393.239-1.197h.961l-.161.804 1.961.393.239-1.197h1.048l-1.276 6.696c-3.112-.509-6.516-.696-8.992-.696-5.88 0-17 1.045-17 5v15h-2v-29h2v2c0 .553.447 1 1 1zm26.649-2h-1.029l.8-4h.991zm2.798-4h1.553v4h-2.315zm-5.867 4h-.96l.8-4h.961zm-3 0h-.96l.8-4h.961zm-3 0h-.96l.8-4h.961zm-3 0h-.96l.8-4h.961zm-3 0h-.96l.8-4h.961zm-3 0h-.96l.8-4h.961zm-3 0h-.96l.8-4h.961zm-3 0h-1.58v-4h2.38zm20.42 23.583v-1.999c1.373-.164 2.738-.383 4-.668v1.946c-1.109.274-2.449.524-4 .721zm-6 .403v-1.996c1.214-.022 2.584-.086 4-.204v2.012c-1.223.103-2.566.166-4 .188zm-6-.188v-2.012c1.416.118 2.786.182 4 .204v1.997c-1.434-.023-2.777-.086-4-.189zm-6-.936v-1.946c1.262.285 2.627.504 4 .668v1.999c-1.551-.197-2.891-.447-4-.721zm-4-7.321c1.275.693 3.047 1.21 5 1.585v1.964c-3.281-.687-5-1.593-5-2.09zm25.421-.544c-2.502.562-5.993 1.003-10.421 1.003s-7.919-.441-10.421-1.003c2.811-.627 6.506-.997 10.421-.997s7.61.37 10.421.997zm-6.421 4.871v-2.007c1.302-.087 2.665-.218 4-.405v1.991c-1.187.179-2.525.324-4 .421zm-4 .132c-.691 0-1.354-.013-2-.033v-2.004c.711.025 1.385.037 2 .037s1.289-.012 2-.037v2.004c-.646.02-1.309.033-2 .033zm-8-.553v-1.991c1.335.187 2.698.318 4 .405v2.007c-1.475-.097-2.813-.242-4-.421zm-7 .094c.575.313 1.251.59 2 .834v1.89c-1.314-.479-2-.953-2-1.265zm28 .834c.749-.244 1.425-.521 2-.834v1.459c0 .312-.686.786-2 1.265zm-3-1.285v-1.964c1.953-.375 3.725-.892 5-1.585v1.459c0 .497-1.719 1.403-5 2.09zm3.833-5.166c-1.005-.394-2.216-.737-3.607-1.018l.355-1.865c2.898.667 4.419 1.493 4.419 1.959 0 .237-.403.568-1.167.924zm-5.577-1.364c-2.459-.362-5.283-.56-8.256-.56-5.657 0-10.759.719-13.833 1.924-.764-.356-1.167-.687-1.167-.924 0-.871 5.257-3 15-3 3.452 0 6.328.27 8.619.653zm-23.256 10.981c1.275.693 3.047 1.21 5 1.585v2.874h-5zm7 1.914c1.335.187 2.698.318 4 .405v2.14h-4zm6 .508c.343.012.677.021 1 .027v.01h2v-.01c.323-.006.657-.015 1-.027v2.037h-4zm6-.102c1.302-.087 2.665-.218 4-.405v2.544h-4zm6-.735c1.953-.375 3.725-.892 5-1.585v4.459h-5zm7-12.126c0-1.93-2.649-3.165-6.044-3.926l1.348-7.074h3.696c.553 0 1-.447 1-1v-2h2v29h-2zm0-16v-2c0-.552-.447-1-1-1h-2.172l.155-.813-1.965-.374-.226 1.187h-.972l.161-.804-1.961-.393-.24 1.197h-.96l.161-.804-1.961-.393-.24 1.197h-.96l.161-.804-1.961-.393-.24 1.197h-.96l.161-.804-1.961-.393-.24 1.197h-.96l.161-.804-1.961-.393-.24 1.197h-.96l.161-.804-1.961-.393-.24 1.197h-.96l.161-.804-1.961-.393-.24 1.197h-.96l.161-.804-1.961-.393-.24 1.197h-3.78c-.553 0-1 .448-1 1v2h-2v-17h38v17zm-18.755-26.787 1.755-.206 1.755.207c8.531 1.003 16.927 3.675 24.516 7.786h-52.544c7.574-4.106 15.978-6.782 24.518-7.787zm-21.245 9.787h2v17h-2zm0 19h2v29h-2zm46 29h-2v-29h2z"/></svg>